<svg viewBox="0 0 100 100" fill="none" xmlns="http://www.w3.org/2000/svg">
  <ellipse cx="50" cy="55" rx="35" ry="40" fill="#052e16" stroke="#22c55e" stroke-width="2" />
  <circle cx="35" cy="45" r="15" fill="#0f172a" stroke="#22c55e" stroke-width="2" />
  <circle cx="35" cy="45" r="8" fill="#22c55e" />
  <circle cx="38" cy="42" r="3" fill="white" />
  <circle cx="65" cy="45" r="15" fill="#0f172a" stroke="#22c55e" stroke-width="2" />
  <circle cx="65" cy="45" r="8" fill="#22c55e" />
  <circle cx="68" cy="42" r="3" fill="white" />
  <path d="M50 55 L45 65 L50 70 L55 65 Z" fill="#16a34a" stroke="#22c55e" stroke-width="1" />
  <path d="M25 25 Q30 15 35 25 Q30 20 25 25" fill="#22c55e" fill-opacity="0.5" stroke="#22c55e" stroke-width="1" />
  <path d="M75 25 Q70 15 65 25 Q70 20 75 25" fill="#22c55e" fill-opacity="0.5" stroke="#22c55e" stroke-width="1" />
  <path d="M50 75 L42 70 L42 78 Q42 85 50 90 Q58 85 58 78 L58 70 Z" fill="#22c55e" fill-opacity="0.3" stroke="#86efac" stroke-width="1.5" />
</svg>
